<svg x="0" y="0" width="60" height="57.41626794258374" filtersec="colorsb7632154176" class="image-svg-svg primary" style="overflow: visible;"><svg xmlns="http://www.w3.org/2000/svg" viewBox="0 0 175.80999755859375 168.239990234375"><g><g><path fill="#7f91e4" d="M175.81 12.84h-40.62L95.48 127.07l14.5 41.17h4.78l61.05-155.4z"></path><path fill="#ffa800" d="M95.48 127.07l-.03.1-26.04-74.91L40.2 81.47l33.72 86.77h36.06l-14.5-41.17zM24.05 12.84H13.53l2.94 7.57 7.58-7.57zM21.87 34.29l21.45-21.45H31.76L18.63 25.96l3.24 8.33zM55.71 12.84h-4.68l-27.01 27 3.24 8.33 30.22-30.23-1.77-5.1zM62.45 32.24l-2.98-8.58-30.05 30.06 3.23 8.33 29.8-29.81zM38.04 75.92l29.38-29.38-2.98-8.58L34.81 67.6l3.23 8.32z"></path><path d="M104.45 158.4h-42.9L0 0h45.44l38.67 111.26L122.78 0h43.89zm-40.85-3h38.8L162.27 3h-37.36l-40.8 117.4L43.31 3H4.38z" fill="#49494d"></path></g></g></svg></svg>
